<svg height="512pt" viewBox="0 -93 512 512" width="512pt" xmlns="http://www.w3.org/2000/svg"><path d="m358.601562 315.195312h-328.484374c-11.089844 0-20.078126-8.988281-20.078126-20.078124v-265c0-11.089844 8.988282-20.078126 20.078126-20.078126h451.765624c11.089844 0 20.078126 8.988282 20.078126 20.078126v265c0 11.089843-8.988282 20.078124-20.078126 20.078124h-42.96875" fill="#e6e6e6"/><path d="m481.882812 0h-451.765624c-16.605469 0-30.117188 13.511719-30.117188 30.117188v265c0 16.605468 13.511719 30.117187 30.117188 30.117187h328.484374c5.542969 0 10.039063-4.496094 10.039063-10.039063 0-5.542968-4.496094-10.039062-10.039063-10.039062h-328.484374c-5.535157 0-10.039063-4.503906-10.039063-10.039062v-265c0-5.535157 4.503906-10.039063 10.039063-10.039063h451.765624c5.535157 0 10.039063 4.503906 10.039063 10.039063v265c0 5.535156-4.503906 10.039062-10.039063 10.039062h-42.96875c-5.542968 0-10.039062 4.496094-10.039062 10.039062 0 5.542969 4.496094 10.039063 10.039062 10.039063h42.96875c16.605469 0 30.117188-13.511719 30.117188-30.117187v-265c0-16.605469-13.511719-30.117188-30.117188-30.117188zm0 0"/><path d="m79.8125 215.84375v-157.617188c0-5.542968-4.496094-10.039062-10.039062-10.039062-5.546876 0-10.039063 4.496094-10.039063 10.039062v157.617188c0 5.542969 4.492187 10.039062 10.039063 10.039062 5.542968 0 10.039062-4.496093 10.039062-10.039062zm0 0"/><path d="m116.957031 215.84375v-146.574219c0-5.542969-4.496093-10.039062-10.039062-10.039062-5.546875 0-10.039063 4.496093-10.039063 10.039062v146.574219c0 5.542969 4.492188 10.039062 10.039063 10.039062 5.542969 0 10.039062-4.496093 10.039062-10.039062zm0 0"/><path d="m154.101562 215.84375v-125.492188c0-5.542968-4.496093-10.039062-10.039062-10.039062s-10.039062 4.496094-10.039062 10.039062v125.492188c0 5.542969 4.496093 10.039062 10.039062 10.039062s10.039062-4.496093 10.039062-10.039062zm0 0"/><path d="m191.246094 215.84375v-157.617188c0-5.542968-4.492188-10.039062-10.039063-10.039062-5.542969 0-10.039062 4.496094-10.039062 10.039062v157.617188c0 5.542969 4.496093 10.039062 10.039062 10.039062 5.546875 0 10.039063-4.496093 10.039063-10.039062zm0 0"/><path d="m228.390625 215.84375v-54.832031c0-5.542969-4.492187-10.039063-10.039063-10.039063-5.542968 0-10.039062 4.496094-10.039062 10.039063v54.832031c0 5.542969 4.496094 10.039062 10.039062 10.039062 5.546876 0 10.039063-4.496093 10.039063-10.039062zm0 0"/><path d="m265.539062 215.84375v-118.171875c0-5.546875-4.496093-10.039063-10.042968-10.039063-5.542969 0-10.039063 4.492188-10.039063 10.039063v118.171875c0 5.542969 4.496094 10.039062 10.039063 10.039062 5.546875 0 10.042968-4.496093 10.042968-10.039062zm0 0"/><path d="m302.683594 215.84375v-157.617188c0-5.542968-4.496094-10.039062-10.039063-10.039062-5.546875 0-10.039062 4.496094-10.039062 10.039062v157.617188c0 5.542969 4.492187 10.039062 10.039062 10.039062 5.542969 0 10.039063-4.496093 10.039063-10.039062zm0 0"/><path d="m339.828125 215.84375v-87.859375c0-5.546875-4.496094-10.039063-10.039063-10.039063-5.546874 0-10.039062 4.492188-10.039062 10.039063v87.859375c0 5.542969 4.492188 10.039062 10.039062 10.039062 5.542969 0 10.039063-4.496093 10.039063-10.039062zm0 0"/><path d="m366.933594 65.253906c-5.542969 0-10.039063 4.496094-10.039063 10.039063v140.550781c0 5.542969 4.496094 10.039062 10.039063 10.039062 5.542968 0 10.039062-4.496093 10.039062-10.039062v-140.550781c0-5.542969-4.496094-10.039063-10.039062-10.039063zm0 0"/><path d="m404.078125 87.632812c-5.542969 0-10.039063 4.492188-10.039063 10.039063v118.171875c0 5.542969 4.496094 10.039062 10.039063 10.039062 5.546875 0 10.039063-4.496093 10.039063-10.039062v-118.171875c0-5.546875-4.492188-10.039063-10.039063-10.039063zm0 0"/><path d="m451.261719 215.84375v-157.617188c0-5.542968-4.492188-10.039062-10.039063-10.039062-5.542968 0-10.039062 4.496094-10.039062 10.039062v157.617188c0 5.542969 4.496094 10.039062 10.039062 10.039062 5.546875 0 10.039063-4.496093 10.039063-10.039062zm0 0"/><path d="m78.917969 283.601562c1.203125.6875 2.636719 1.039063 4.261719 1.039063 1.621093 0 3.054687-.351563 4.261718-1.039063 1.457032-.835937 2.230469-2.113281 2.230469-3.695312v-5.617188h1.242187c.878907 0 2.171876-.347656 3.335938-1.996093.820312-1.160157 1.234375-2.457031 1.234375-3.855469 0-1.445312-.34375-2.734375-1.023437-3.839844-.8125-1.316406-2.039063-2.011718-3.550782-2.011718h-1.242187v-3.273438c0-1.582031-.792969-2.898438-2.242188-3.703125-1.203125-.667969-2.632812-1.011719-4.246093-1.011719-1.617188 0-3.042969.339844-4.246094 1.011719-.164063.089844-.320313.1875-.464844.292969l6.890625-13.820313.042969-.09375c.296875-.710937.433594-1.28125.433594-1.792969 0-1.105468-.421876-2.691406-2.425782-3.957031-1.390625-.875-2.757812-1.320312-4.0625-1.320312-2.429687 0-4.328125 1.152343-5.492187 3.351562l-14.746094 28.640625c-.460937.851563-.691406 1.730469-.691406 2.613282 0 1.410156.484375 2.613281 1.398437 3.476562.902344.855469 2.058594 1.285156 3.429688 1.285156h13.445312v5.621094c0 1.585938.769532 2.863281 2.226563 3.695312zm-3.785157-21.015624 1.558594-3.121094v3.121094zm0 0"/><path d="m110.648438 281.160156c3.074218 2.5625 7.292968 3.863282 12.527343 3.863282 4.984375 0 9.09375-1.320313 12.214844-3.929688 3.199219-2.675781 4.820313-6.804688 4.820313-12.273438v-1.214843c0-5.316407-1.625-9.285157-4.828126-11.792969-3.09375-2.414062-7.242187-3.640625-12.332031-3.640625h-2.53125l.414063-5.550781h12.59375c1.003906 0 2.40625-.347656 3.402344-2.007813.648437-1.085937.980468-2.378906.980468-3.839843 0-1.464844-.332031-2.757813-.980468-3.84375-.996094-1.660157-2.398438-2.007813-3.402344-2.007813h-20.382813c-1.289062 0-2.90625.765625-3.285156 4.414063l-1.726563 16.125c-.089843.980468-.136718 1.632812-.136718 1.988281 0 1.648437.417968 2.957031 1.234375 3.894531.871093 1.003906 2.253906 1.507812 4.105469 1.507812h9.714843c1.371094 0 2.386719.363282 3.097657 1.101563.71875.75 1.082031 1.980469 1.082031 3.65625v1.210937c0 3.199219-1.25 4.5-4.308594 4.5-1.316406 0-2.382813-.257812-3.171875-.777343-.617188-.402344-.882812-.886719-.882812-1.613281 0-1.609376-.484376-2.898438-1.449219-3.828126-.972657-.941406-2.574219-1.382812-5.039063-1.382812-2.019531 0-3.542968.414062-4.65625 1.269531-1.214844.9375-1.835937 2.5-1.835937 4.644531.003906 3.691407 1.601562 6.894532 4.761719 9.527344zm0 0"/><path d="m171.097656 246.621094c1.28125 0 2.347656.257812 3.167969.765625.777344.484375.882813.996093.882813 1.433593 0 1.921876.871093 5.148438 6.683593 5.148438 2.039063 0 3.523438-.402344 4.535157-1.238281 1.085937-.894531 1.632812-2.335938 1.632812-4.292969 0-3.476562-1.441406-6.636719-4.292969-9.390625-2.832031-2.738281-6.96875-4.128906-12.289062-4.128906-5.277344 0-9.585938 1.34375-12.808594 3.984375-3.3125 2.71875-4.992187 6.957031-4.992187 12.601562v16.933594c0 5.632812 1.621093 9.867188 4.8125 12.582031 3.117187 2.65625 7.296874 4 12.414062 4 5.074219 0 9.226562-1.34375 12.347656-4 3.191406-2.714843 4.8125-6.949219 4.8125-12.582031v-.574219c0-5.210937-1.417968-9.058593-4.203125-11.433593-2.71875-2.316407-6.328125-3.492188-10.722656-3.492188-2.5625 0-4.726563.445312-6.480469 1.328125v-2.761719c0-3.421875 1.34375-4.882812 4.5-4.882812zm3.925782 22.722656c0 4.40625-2.113282 5-4.183594 5-2.097656 0-4.242188-.59375-4.242188-5v-1.183594c0-3.226562 1.210938-4.542968 4.179688-4.542968 2.101562 0 4.246094.609374 4.246094 5.132812zm0 0"/><path d="m208.523438 283.65625c1.195312.652344 2.621093.984375 4.234374.984375 1.609376 0 3.03125-.332031 4.230469-.984375 1.453125-.789062 2.257813-2.066406 2.257813-3.589844v-40.636718c0-.984376-.355469-2.390626-2.058594-3.5-1.160156-.753907-2.457031-1.136719-3.855469-1.136719-1.054687 0-1.949219.230469-2.632812.664062l-8.417969 5.101563c-1.699219.996094-2.597656 2.617187-2.597656 4.683594 0 1.351562.402344 2.574218 1.1875 3.640624.882812 1.195313 2.074218 1.828126 3.449218 1.828126.683594 0 1.34375-.164063 1.945313-.472657v29.828125c0 1.527344.800781 2.800782 2.257813 3.589844zm0 0"/><path d="m253.832031 272.457031c-.394531.394531-1.316406.863281-3.476562.863281-4.148438 0-4.148438-1.542968-4.148438-2.199218 0-2.183594-.929687-3.285156-1.710937-3.828125-.988282-.679688-2.558594-1-4.941406-1-2.183594 0-3.652344.339843-4.625 1.066406-1.085938.808594-1.636719 2.179687-1.636719 4.082031 0 3.519532 1.449219 6.703125 4.304687 9.453125 2.839844 2.742188 7.027344 4.128907 12.441406 4.128907 5.171876 0 9.421876-1.292969 12.636719-3.839844 3.320313-2.632813 5-6.703125 5-12.105469v-1.214844c0-4.300781-1.738281-7.585937-5.0625-9.636719.816407-.816406 1.507813-1.835937 2.074219-3.050781.964844-2.089843 1.457031-4.476562 1.457031-7.09375 0-6.003906-2.738281-13.160156-15.785156-13.160156-5.378906 0-9.453125 1.316406-12.101563 3.910156-2.65625 2.605469-4.003906 5.644531-4.003906 9.03125 0 2.101563.476563 3.53125 1.457032 4.371094.9375.804687 2.558593 1.160156 5.261718 1.160156 2.15625 0 3.679688-.417969 4.660156-1.285156 1.019532-.902344 1.535157-2.179687 1.535157-3.792969 0-.925781.320312-1.128906.441406-1.207031.289063-.179687 1.03125-.488281 2.75-.488281 2.296875 0 3.191406.851562 3.191406 3.039062 0 1.042969-.109375 1.878906-.328125 2.496094-.105468.296875-.285156.6875-.558594.847656-.382812.230469-.742187.382813-1.066406.449219-.375.085937-.875.125-1.484375.125-1.308593 0-4.359375.519531-4.359375 5.339844 0 4.820312 3.042969 5.339843 4.351563 5.339843 1.675781 0 2.917969.265626 3.699219.792969.738281.503907.894531 1.804688.894531 2.8125v1.210938c0 1.644531-.300781 2.8125-.867188 3.382812zm0 0"/><path d="m280.894531 269.675781v.761719c0 4.96875 1.65625 8.710938 4.925781 11.117188 3.125 2.300781 7.261719 3.46875 12.296876 3.46875 5.035156 0 9.164062-1.167969 12.269531-3.472657 3.246093-2.40625 4.890625-6.144531 4.890625-11.113281v-.761719c0-5.617187-1.996094-9.644531-5.945313-12.019531 2.378907-1.714844 4.410157-4.710938 4.410157-9.945312 0-4.292969-1.484376-7.558594-4.414063-9.710938-2.789063-2.042969-6.558594-3.082031-11.210937-3.082031-4.652344 0-8.425782 1.039062-11.210938 3.082031-2.929688 2.152344-4.414062 5.417969-4.414062 9.710938 0 5.226562 2.027343 8.222656 4.402343 9.9375-3.984375 2.375-6 6.40625-6 12.027343zm12.976563-1.800781c0-3.296875 1.273437-4.703125 4.246094-4.703125 2.929687 0 4.179687 1.40625 4.179687 4.703125v1.4375c0 4.433594-2.113281 5.03125-4.179687 5.03125-2.097657 0-4.246094-.597656-4.246094-5.03125zm4.246094-15.382812c-1.820313 0-3.03125-.582032-3.03125-3.414063 0-2.886719 1.210937-3.476563 3.03125-3.476563 1.820312 0 3.03125.589844 3.03125 3.476563 0 2.832031-1.210938 3.414063-3.03125 3.414063zm0 0"/><path d="m345.78125 273.320312c-1.285156 0-2.351562-.257812-3.167969-.765624-.78125-.480469-.882812-.996094-.882812-1.433594 0-1.921875-.871094-5.148438-6.683594-5.148438-2.039063 0-3.523437.40625-4.535156 1.238282-1.082031.894531-1.632813 2.339843-1.632813 4.292968 0 3.476563 1.445313 6.636719 4.292969 9.390625 2.832031 2.738281 6.96875 4.128907 12.289063 4.128907 5.277343 0 9.585937-1.339844 12.808593-3.984376 3.3125-2.71875 4.992188-6.957031 4.992188-12.601562v-16.933594c0-5.632812-1.617188-9.867187-4.8125-12.582031-3.121094-2.65625-7.296875-4-12.410157-4-5.078124 0-9.230468 1.34375-12.351562 4-3.191406 2.714844-4.808594 6.949219-4.808594 12.582031v.578125c0 5.210938 1.414063 9.054688 4.203125 11.429688 2.714844 2.316406 6.324219 3.492187 10.71875 3.492187 2.5625 0 4.730469-.445312 6.480469-1.328125v2.761719c0 3.421875-1.34375 4.882812-4.5 4.882812zm-3.925781-22.71875c0-4.40625 2.113281-5.003906 4.183593-5.003906 2.097657 0 4.242188.597656 4.242188 5.003906v1.183594c0 3.222656-1.210938 4.539063-4.179688 4.539063-2.097656 0-4.246093-.609375-4.246093-5.132813zm0 0"/><path d="m408.945312 282.625c.761719-1.140625 1.148438-2.453125 1.148438-3.902344 0-1.460937-.394531-2.761718-1.175781-3.871094-1.117188-1.582031-2.4375-1.914062-3.351563-1.914062h-14.988281c.226563-.355469.601563-.800781 1.210937-1.339844 1.320313-1.175781 2.945313-2.402344 4.824219-3.648437 1.972657-1.308594 3.964844-2.773438 5.921875-4.347657 2.054688-1.652343 3.832032-3.71875 5.289063-6.144531 1.503906-2.511719 2.269531-5.226562 2.269531-8.074219 0-4.433593-1.707031-8.011718-5.074219-10.636718-3.25-2.539063-7.082031-3.824219-11.382812-3.824219-4.1875 0-7.890625 1.234375-11.011719 3.671875-3.230469 2.527344-4.871094 5.925781-4.871094 10.101562 0 5.8125 3.710938 6.679688 5.917969 6.679688 1.898437 0 3.476563-.488281 4.691406-1.453125 1.640625-1.304687 1.988281-2.804687 1.988281-3.832031 0-1.261719.285157-2.152344.84375-2.648438.628907-.550781 1.449219-.820312 2.503907-.820312 1.199219 0 2.039062.289062 2.5625.882812.574219.648438.851562 1.367188.851562 2.199219 0 1.121094-.582031 2.351563-1.726562 3.65625-1.324219 1.503906-2.972657 2.972656-4.917969 4.375l-5.871094 4.394531c-2.046875 1.539063-3.816406 3.308594-5.261718 5.257813-1.558594 2.097656-2.347657 4.261719-2.347657 6.425781v6.234375c0 .96875.371094 2.351563 2.144531 3.460937 1.195313.75 2.445313 1.132813 3.707032 1.132813h22.746094c.921874 0 2.25-.351563 3.359374-2.015625zm0 0"/><path d="m453.167969 281.019531c3.171875-2.71875 4.78125-6.949219 4.78125-12.582031v-16.933594c0-5.628906-1.609375-9.863281-4.78125-12.578125-3.101563-2.65625-7.257813-4.003906-12.34375-4.003906-5.03125 0-9.148438 1.347656-12.238281 4.003906-3.164063 2.714844-4.765626 6.949219-4.765626 12.578125v16.933594c0 5.632812 1.601563 9.863281 4.765626 12.578125 3.089843 2.660156 7.210937 4.007813 12.238281 4.007813 5.085937 0 9.242187-1.347657 12.34375-4.003907zm-8.199219-12.582031c0 4.304688-2.09375 4.882812-4.144531 4.882812-1.988281 0-4.023438-.578124-4.023438-4.882812v-16.933594c0-4.300781 2.035157-4.882812 4.023438-4.882812 2.050781 0 4.144531.582031 4.144531 4.882812zm0 0"/><path d="m228.367188 118.171875c-1.269532-5.398437-6.675782-8.742187-12.070313-7.472656l-.488281.113281c-5.394532 1.269531-8.742188 6.671875-7.472656 12.070312 1.085937 4.625 5.210937 7.742188 9.765624 7.742188.757813 0 1.53125-.085938 2.304688-.269531l.488281-.113281c5.394531-1.269532 8.742188-6.671876 7.472657-12.070313zm0 0"/><path d="m397.820312 305.363281-.484374.113281c-5.398438 1.265626-8.75 6.667969-7.488282 12.066407 1.085938 4.628906 5.210938 7.753906 9.765625 7.753906.757813 0 1.53125-.085937 2.300781-.269531l.488282-.113282c5.398437-1.265624 8.746094-6.664062 7.484375-12.0625-1.265625-5.402343-6.664063-8.75-12.066407-7.488281zm0 0"/></svg>